<!-- FONT TO SVG: https://danmarshall.github.io/google-font-to-svg-path/ -->
<svg width="103.027" height="68.75" viewBox="0 0 103.027 68.75" xmlns="http://www.w3.org/2000/svg"><g id="svgGroup" stroke-linecap="round" fill-rule="evenodd" font-size="9pt" stroke="#ff6978" stroke-width="0.25mm" fill="#ff6978" style="stroke:#ff6978;stroke-width:0.25mm;fill:#ff6978"><path d="M 30.273 49.707 L 30.273 13.867 L 17.48 13.867 A 39.233 39.233 0 0 1 13.574 13.672 A 12.889 12.889 0 0 1 11.384 13.268 A 10.666 10.666 0 0 1 10.034 12.793 Q 8.447 12.109 7.446 10.742 A 4.779 4.779 0 0 1 6.72 9.217 Q 6.445 8.258 6.445 7.031 A 9.283 9.283 0 0 1 6.564 5.502 Q 6.701 4.679 6.999 4.013 A 4.65 4.65 0 0 1 7.446 3.223 Q 8.447 1.807 10.034 1.099 A 10.785 10.785 0 0 1 12.389 0.368 A 13.113 13.113 0 0 1 13.574 0.195 A 39.233 39.233 0 0 1 17.48 0 L 37.402 0 Q 39.338 0 40.719 0.473 A 5.818 5.818 0 0 1 41.821 0.977 A 6.639 6.639 0 0 1 43.673 2.586 A 6.239 6.239 0 0 1 44.287 3.54 A 9.87 9.87 0 0 1 45.178 6.036 A 12.019 12.019 0 0 1 45.361 7.129 A 33.859 33.859 0 0 1 45.605 11.231 L 45.605 48.34 A 29.29 29.29 0 0 1 45.373 52.139 Q 45.121 54.065 44.594 55.699 A 15.788 15.788 0 0 1 44.141 56.934 Q 42.676 60.449 40.454 62.72 A 16.953 16.953 0 0 1 37.033 65.441 A 15.234 15.234 0 0 1 35.571 66.211 A 30.001 30.001 0 0 1 32.734 67.349 A 23.389 23.389 0 0 1 30.493 67.993 Q 28.525 68.451 26.961 68.6 A 16.76 16.76 0 0 1 26.27 68.652 Q 24.794 68.732 24.165 68.747 A 10.553 10.553 0 0 1 23.926 68.75 A 39.858 39.858 0 0 1 19.808 68.549 Q 16.978 68.254 14.673 67.529 A 26.472 26.472 0 0 1 11.302 66.224 A 19.229 19.229 0 0 1 8.13 64.356 A 18.372 18.372 0 0 1 5.276 61.785 A 15.561 15.561 0 0 1 3.857 59.937 A 22.973 22.973 0 0 1 2 56.512 A 20.032 20.032 0 0 1 1.392 54.932 A 25.638 25.638 0 0 1 0.552 51.834 A 21.209 21.209 0 0 1 0.269 50.049 A 48.644 48.644 0 0 1 0.105 48.38 Q 0.039 47.558 0.015 46.832 A 24.718 24.718 0 0 1 0 45.996 A 11.11 11.11 0 0 1 0.017 45.402 Q 0.046 44.87 0.122 44.214 A 3.88 3.88 0 0 1 0.578 42.805 A 5.006 5.006 0 0 1 0.977 42.188 A 4.158 4.158 0 0 1 1.781 41.389 Q 2.403 40.912 3.296 40.527 Q 4.808 39.876 7.541 39.845 A 24.31 24.31 0 0 1 7.813 39.844 Q 8.476 39.844 9.366 39.9 A 45.063 45.063 0 0 1 10.254 39.966 Q 11.719 40.088 13.086 40.601 Q 14.453 41.113 15.43 42.09 A 3.256 3.256 0 0 1 16.32 43.801 A 4.74 4.74 0 0 1 16.406 44.727 A 37.679 37.679 0 0 0 16.481 47.155 Q 16.558 48.342 16.713 49.395 A 23.006 23.006 0 0 0 16.724 49.463 A 12.662 12.662 0 0 0 17.099 51.179 Q 17.404 52.203 17.871 53.027 A 5.645 5.645 0 0 0 20.166 55.274 Q 21.36 55.911 23.107 56.028 A 12.197 12.197 0 0 0 23.926 56.055 Q 25.522 56.055 26.629 55.62 A 4.122 4.122 0 0 0 27.612 55.078 A 7.13 7.13 0 0 0 28.666 54.113 A 5.371 5.371 0 0 0 29.492 52.881 A 7.242 7.242 0 0 0 30.108 51.052 A 9.472 9.472 0 0 0 30.273 49.707 Z M 92.48 9.18 L 102.637 43.652 Q 102.734 46.973 102.881 50.44 A 163.066 163.066 0 0 1 103.018 55.502 A 145.869 145.869 0 0 1 103.027 57.129 L 103.027 58.594 A 51.744 51.744 0 0 1 102.934 61.747 A 46.896 46.896 0 0 1 102.905 62.183 A 9.794 9.794 0 0 1 102.593 64.073 A 8.103 8.103 0 0 1 102.148 65.308 A 4.975 4.975 0 0 1 100.146 67.529 Q 99.172 68.121 97.628 68.291 A 12.264 12.264 0 0 1 96.289 68.359 A 12.494 12.494 0 0 1 94.834 68.28 Q 93.328 68.103 92.383 67.529 A 5.285 5.285 0 0 1 90.797 66.078 A 5.091 5.091 0 0 1 90.356 65.332 A 7.83 7.83 0 0 1 89.732 63.42 A 9.944 9.944 0 0 1 89.575 62.207 A 52.165 52.165 0 0 1 89.453 58.594 L 89.453 51.758 L 69.922 51.758 L 69.922 58.594 A 52.165 52.165 0 0 1 69.8 62.207 A 9.494 9.494 0 0 1 69.519 63.965 A 7.571 7.571 0 0 1 69.019 65.332 A 5.15 5.15 0 0 1 67.035 67.503 A 6.16 6.16 0 0 1 66.992 67.529 A 4.878 4.878 0 0 1 65.802 68.035 Q 64.673 68.359 63.086 68.359 A 12.494 12.494 0 0 1 61.63 68.28 Q 60.125 68.103 59.18 67.529 A 4.975 4.975 0 0 1 57.178 65.308 Q 56.543 63.916 56.445 62.183 A 63.052 63.052 0 0 1 56.349 59.056 A 69.637 69.637 0 0 1 56.348 58.594 L 56.348 57.129 A 206.404 206.404 0 0 1 56.354 55.567 A 247.62 247.62 0 0 1 56.372 53.906 Q 56.396 52.197 56.445 50.44 A 8934.348 8934.348 0 0 1 56.543 46.948 A 1159.521 1159.521 0 0 1 56.592 45.258 A 992.563 992.563 0 0 1 56.641 43.652 A 941.65 941.65 0 0 1 61.768 26.441 Q 64.453 17.725 66.895 9.18 Q 67.383 7.373 68.066 5.689 A 10.216 10.216 0 0 1 69.276 3.494 A 9.176 9.176 0 0 1 69.873 2.759 A 7.649 7.649 0 0 1 71.717 1.278 A 9.56 9.56 0 0 1 72.754 0.757 Q 74.12 0.169 76.077 0.038 A 17.519 17.519 0 0 1 77.246 0 L 82.129 0 A 15.748 15.748 0 0 1 84.016 0.107 Q 85.483 0.284 86.597 0.757 A 9.072 9.072 0 0 1 88.282 1.683 A 7.284 7.284 0 0 1 89.502 2.759 A 9.34 9.34 0 0 1 91.112 5.274 A 10.788 10.788 0 0 1 91.284 5.689 A 43.935 43.935 0 0 1 92.48 9.18 Z M 79.199 12.695 L 71.973 38.867 L 87.5 38.867 L 80.273 12.695 L 79.199 12.695 Z" vector-effect="non-scaling-stroke"/></g></svg>